P1
# CREATOR: GIMP PNM Filter Version 1.1
5 5
1111110111100111000111111