P2
# CREATOR: GIMP PNM Filter Version 1.1
5 5
255
0
0
0
0
0
0
42
0
0
0
0
84
126
0
0
0
168
210
252
0
0
0
0
0
0
