P2
# CREATOR: GIMP PNM Filter Version 1.1
3 3
255
54
70
235
182
42
0
18
152
40
