P3
# CREATOR: GIMP PNM Filter Version 1.1
3 3
255
255
0
0
255
0
216
246
255
0
0
255
0
92
14
172
0
0
0
0
0
255
191
150
61
61
25
121
